<svg width="562" height="332" viewBox="0 0 562 332" fill="none" xmlns="http://www.w3.org/2000/svg">
<g clipPath="url(#clip0_5_18)">
<path d="M560.202 163.418C554.765 102.141 515.592 50.0236 456.145 27.5866C440.518 21.6846 423.603 17.737 406.277 17.6905C335.491 17.4888 246.131 56.3366 201.622 61.7112C157.12 67.0859 111.448 21.5373 46.2 76.9199C-19.0556 132.31 -23.6857 276.215 87.7932 316.506C199.272 356.796 271.919 294.953 321.105 315.482C370.291 336.011 462.543 339.408 522.122 300.824C557.464 277.945 564.917 216.606 560.202 163.418Z" fill="#92E3A9"/>
<path opacity="0.8" d="M560.202 163.418C554.765 102.141 515.592 50.0236 456.145 27.5866C440.518 21.6846 423.603 17.737 406.277 17.6905C335.491 17.4888 246.131 56.3366 201.622 61.7112C157.12 67.0859 111.448 21.5373 46.2 76.9199C-19.0556 132.31 -23.6857 276.215 87.7932 316.506C199.272 356.796 271.919 294.953 321.105 315.482C370.291 336.011 462.543 339.408 522.122 300.824C557.464 277.945 564.917 216.606 560.202 163.418Z" fill="white"/>
<path d="M508.565 331.342H530.963" stroke="#263238" strokeWidth="0.775559" stroke-miterlimit="10"/>
<path d="M32.9845 331.342H503.966" stroke="#263238" strokeWidth="0.775559" stroke-miterlimit="10"/>
<path d="M37.8551 292.859C39.1658 293.433 42.3688 293.355 42.3688 293.355C42.3998 293.355 41.6786 291.261 41.6165 291.129C40.9108 289.656 38.6927 287.228 36.8856 287.477C35.5827 287.655 34.8614 288.958 35.1484 290.183C35.4586 291.447 36.7383 292.378 37.8551 292.859Z" fill="#263238"/>
<path d="M38.964 302.142C40.3212 302.344 43.1831 301.514 43.408 301.444C43.8578 303.042 44.455 304.647 45.1452 306.245C45.5408 307.153 45.9596 308.06 46.4016 308.96C46.1379 308.58 45.9053 308.238 45.8665 308.192C44.7962 306.959 42.012 305.206 40.3368 305.919C39.1269 306.431 38.7701 307.882 39.3828 308.991C40.0033 310.123 41.4923 310.681 42.6945 310.852C43.9198 311.03 46.3706 310.371 47.0143 310.193C47.1849 310.534 47.3556 310.883 47.5262 311.224C48.356 312.876 49.1859 314.513 49.9537 316.149C50.2251 316.723 50.4733 317.305 50.7215 317.879C50.4888 317.537 50.2949 317.258 50.2562 317.212C49.1937 315.978 46.4016 314.226 44.7264 314.939C43.5166 315.451 43.1598 316.901 43.7725 318.01C44.3929 319.143 45.882 319.701 47.0841 319.872C48.2475 320.042 50.5199 319.453 51.2877 319.244C51.5203 319.841 51.7607 320.438 51.9624 321.027C52.0942 321.431 52.2416 321.818 52.3502 322.229C52.4665 322.64 52.5751 323.044 52.6914 323.447C52.8776 324.23 53.0792 325.029 53.2421 325.797C53.3584 326.332 53.4592 326.836 53.5678 327.348C53.3041 326.774 52.769 325.657 52.7069 325.564C51.8383 324.184 49.3565 322.028 47.5805 322.478C46.3086 322.803 45.7347 324.184 46.169 325.363C46.611 326.573 47.9915 327.348 49.1626 327.705C50.4423 328.1 53.2808 327.736 53.6376 327.689C53.8082 328.535 53.9633 329.365 54.1029 330.148C54.1727 330.559 54.2425 330.954 54.3046 331.342H55.4369C55.3516 330.892 55.2663 330.435 55.1732 329.946C55.0026 329.085 54.8087 328.17 54.5915 327.224C54.8087 327.139 56.0186 326.65 57.0888 326.053C58.0195 327.061 60.416 328.248 60.7262 328.403C60.4005 329.202 60.0747 329.977 59.7568 330.706C59.6637 330.923 59.5706 331.133 59.4776 331.342H60.6642C60.6952 331.272 60.7262 331.203 60.7495 331.125C61.083 330.311 61.4242 329.442 61.7655 328.535C62.1067 328.604 64.9142 329.178 66.2249 328.884C67.4115 328.612 68.8463 327.945 69.3815 326.766C69.9011 325.619 69.4357 324.199 68.1871 323.781C66.4576 323.199 63.8129 325.161 62.8512 326.472C62.797 326.549 62.2696 327.457 61.9438 328.038C62.0834 327.666 62.2153 327.309 62.3549 326.929C62.6341 326.177 62.8823 325.417 63.1615 324.603C63.2778 324.207 63.4019 323.804 63.526 323.393C63.6578 322.989 63.7431 322.555 63.8517 322.129C64.0844 321.144 64.2783 320.128 64.4489 319.104C65.1081 319.344 67.4658 320.166 68.6835 320.073C69.9011 319.988 71.4212 319.546 72.1269 318.46C72.8172 317.405 72.569 315.932 71.3979 315.327C69.777 314.489 66.8686 316.033 65.7131 317.181C65.6433 317.25 64.9065 318.173 64.5109 318.685C64.6118 318.072 64.7048 317.452 64.7824 316.824C65.0073 315.017 65.1779 313.179 65.3563 311.341C65.4106 310.782 65.4726 310.224 65.5269 309.658C65.7596 309.743 68.5361 310.782 69.9011 310.681C71.1187 310.596 72.6388 310.154 73.3446 309.068C74.0348 308.013 73.7866 306.54 72.6155 305.935C70.9946 305.097 68.0863 306.641 66.9307 307.788C66.8454 307.874 65.7829 309.2 65.5347 309.549C65.6665 308.316 65.8061 307.09 65.9923 305.888C66.2482 304.229 66.5972 302.608 67.047 301.072C67.1556 301.111 70.0484 302.204 71.4522 302.104C72.6698 302.018 74.1899 301.569 74.8957 300.49C75.5859 299.436 75.3378 297.962 74.1667 297.357C72.5457 296.52 69.6374 298.063 68.4818 299.211C68.3887 299.304 67.2564 300.723 67.0703 300.995C67.1013 300.902 67.1168 300.808 67.1401 300.715C67.6442 299.079 68.3345 297.551 69.048 296.155C69.4668 295.341 69.9088 294.588 70.3509 293.867C70.8705 294.123 73.2515 295.279 74.5157 295.333C75.7333 295.38 77.2922 295.108 78.1143 294.108C78.9131 293.13 78.8355 291.641 77.7342 290.912C76.2141 289.904 73.1507 291.114 71.8788 292.13C71.809 292.184 71.1652 292.828 70.7077 293.293C70.9171 292.968 71.1187 292.634 71.3281 292.324C72.0882 291.176 72.8637 290.168 73.554 289.284C73.9495 288.787 74.314 288.337 74.663 287.926C75.3067 287.919 77.8893 287.833 79.0139 287.306C80.1152 286.786 81.3794 285.825 81.643 284.56C81.9067 283.327 81.1467 282.04 79.836 281.9C78.0212 281.706 75.8651 284.188 75.2059 285.677C75.1516 285.809 74.4846 287.919 74.5157 287.919C74.5157 287.919 74.5467 287.919 74.5544 287.919C74.2132 288.306 73.8487 288.733 73.4609 289.198C72.7474 290.067 71.9563 291.06 71.1652 292.2C70.3742 293.332 69.5443 294.588 68.7843 295.992C68.0242 297.396 67.2952 298.908 66.7523 300.568C66.7446 300.584 66.7446 300.607 66.7368 300.622C66.7446 300.087 66.7213 298.59 66.7058 298.474C66.4964 296.861 65.1391 293.859 63.3476 293.526C62.0524 293.286 60.9589 294.302 60.8581 295.558C60.7495 296.845 61.6802 298.125 62.5953 298.939C63.6191 299.855 66.4576 300.739 66.6903 300.808C66.1862 302.391 65.7906 304.058 65.4882 305.764C65.3175 306.741 65.1702 307.726 65.0383 308.719C65.0306 308.254 65.0228 307.843 65.0151 307.788C64.8057 306.175 63.4484 303.174 61.6569 302.84C60.3617 302.6 59.2682 303.616 59.1673 304.872C59.0588 306.16 59.9894 307.439 60.9046 308.254C61.8275 309.076 64.2317 309.883 64.8755 310.084C64.8289 310.464 64.7746 310.844 64.7281 311.232C64.5109 313.062 64.3015 314.893 64.0379 316.676C63.9448 317.305 63.8362 317.925 63.7199 318.538C63.7121 318.127 63.7044 317.778 63.6966 317.731C63.4872 316.118 62.13 313.117 60.3384 312.783C59.0433 312.543 57.9497 313.559 57.8489 314.815C57.7403 316.095 58.6787 317.382 59.5861 318.196C60.4625 318.98 62.6806 319.74 63.4407 319.988C63.3088 320.616 63.177 321.244 63.0141 321.849C62.8978 322.26 62.8125 322.664 62.6729 323.067C62.541 323.47 62.4169 323.874 62.2851 324.269C62.0136 325.021 61.7344 325.805 61.4475 326.534C61.2536 327.046 61.0597 327.526 60.8658 328.007C60.9666 327.379 61.1295 326.154 61.1373 326.045C61.1605 324.959 60.7805 323.207 60.0127 321.966C60.0205 321.803 60.0049 321.648 59.9817 321.485C59.78 320.236 58.6089 319.313 57.337 319.655C55.5765 320.128 54.4519 323.222 54.3744 324.851C54.3666 324.944 54.4287 325.991 54.483 326.658C54.3977 326.278 54.3123 325.898 54.2193 325.51C54.0331 324.727 53.8237 323.959 53.6066 323.121C53.4825 322.726 53.3662 322.322 53.2421 321.911C53.1257 321.508 52.9551 321.089 52.8155 320.678C52.4665 319.724 52.0632 318.778 51.6444 317.824C52.3269 317.661 54.7467 317.049 55.7161 316.304C56.6855 315.56 57.7093 314.35 57.6938 313.062C57.686 311.798 56.67 310.712 55.3593 310.852C53.5445 311.046 51.9701 313.939 51.6444 315.536C51.6211 315.637 51.5203 316.808 51.466 317.452C51.2101 316.886 50.9542 316.32 50.6672 315.753C49.8529 314.117 48.9842 312.496 48.1234 310.867C47.8597 310.371 47.6038 309.867 47.3401 309.371C47.5805 309.316 50.4733 308.642 51.5591 307.812C52.5286 307.067 53.5523 305.857 53.5368 304.57C53.529 303.306 52.513 302.22 51.2023 302.36C49.3875 302.553 47.8132 305.446 47.4874 307.044C47.4642 307.16 47.309 308.851 47.2935 309.278C46.7196 308.176 46.1612 307.075 45.6571 305.966C44.9591 304.438 44.3542 302.902 43.8733 301.367C43.9896 301.344 47.0066 300.653 48.1156 299.8C49.0851 299.056 50.1088 297.846 50.0933 296.558C50.0855 295.294 49.0696 294.208 47.7589 294.348C45.9441 294.542 44.3697 297.435 44.0439 299.032C44.0207 299.157 43.8578 300.971 43.85 301.305C43.819 301.212 43.7802 301.119 43.757 301.033C43.2684 299.389 43.0047 297.737 42.8341 296.178C42.7332 295.271 42.6867 294.402 42.6557 293.549C43.2296 293.479 45.851 293.13 46.9445 292.471C47.9838 291.843 49.1394 290.749 49.2712 289.47C49.403 288.213 48.5112 287.019 47.1927 287.019C45.3701 287.019 43.4855 289.718 42.9814 291.269C42.9504 291.354 42.772 292.239 42.6479 292.89C42.6402 292.51 42.6324 292.114 42.6324 291.742C42.6324 290.362 42.7255 289.098 42.8108 287.981C42.8651 287.345 42.9271 286.771 42.9892 286.236C43.5166 285.871 45.6261 284.382 46.2775 283.32C46.9135 282.28 47.4331 280.784 46.96 279.581C46.4947 278.41 45.153 277.759 43.9896 278.356C42.3687 279.194 41.9422 282.459 42.2136 284.064C42.2369 284.204 42.8496 286.337 42.8806 286.313C42.8806 286.313 42.9039 286.298 42.9116 286.29C42.8418 286.802 42.772 287.36 42.7022 287.965C42.5936 289.082 42.4773 290.346 42.4463 291.734C42.4075 293.123 42.4075 294.627 42.5549 296.209C42.6945 297.799 42.9271 299.467 43.3847 301.15C43.3925 301.165 43.4002 301.188 43.4002 301.204C43.1133 300.754 42.2679 299.521 42.1903 299.428C41.1278 298.195 38.3358 296.442 36.6606 297.156C35.4507 297.667 35.094 299.118 35.7067 300.227C36.2728 301.406 37.7541 301.964 38.964 302.142Z" fill="#263238"/>
<path d="M70.258 293.565C70.289 293.58 70.8396 291.432 70.8629 291.3C71.0878 289.687 70.5759 286.437 68.9317 285.638C67.7451 285.065 66.4267 285.755 65.9924 286.941C65.5503 288.151 66.1087 289.64 66.7679 290.656C67.5435 291.858 70.258 293.565 70.258 293.565Z" fill="#263238"/>
<path d="M463.715 298.683C464.824 299.172 467.546 299.11 467.546 299.11C467.577 299.11 466.964 297.334 466.91 297.225C466.313 295.977 464.428 293.914 462.892 294.123C461.783 294.271 461.171 295.38 461.419 296.419C461.675 297.481 462.761 298.265 463.715 298.683Z" fill="#263238"/>
<path d="M464.653 306.555C465.809 306.726 468.236 306.02 468.422 305.966C468.802 307.323 469.306 308.688 469.896 310.038C470.229 310.813 470.586 311.581 470.958 312.341C470.733 312.015 470.54 311.728 470.501 311.69C469.593 310.643 467.236 309.153 465.809 309.758C464.785 310.193 464.482 311.426 464.994 312.364C465.522 313.326 466.786 313.799 467.802 313.946C468.841 314.102 470.92 313.543 471.47 313.38C471.618 313.675 471.757 313.97 471.905 314.257C472.61 315.653 473.316 317.049 473.968 318.437C474.2 318.926 474.41 319.414 474.619 319.903C474.425 319.616 474.254 319.375 474.223 319.337C473.316 318.29 470.958 316.801 469.531 317.405C468.508 317.84 468.205 319.073 468.717 320.011C469.244 320.973 470.509 321.446 471.524 321.593C472.517 321.741 474.441 321.237 475.092 321.058C475.294 321.562 475.495 322.074 475.666 322.578C475.775 322.92 475.906 323.245 475.992 323.602C476.093 323.951 476.186 324.292 476.279 324.634C476.434 325.293 476.604 325.975 476.744 326.627C476.845 327.077 476.93 327.511 477.023 327.945C476.798 327.457 476.341 326.511 476.294 326.433C475.557 325.262 473.448 323.432 471.943 323.812C470.865 324.091 470.377 325.254 470.749 326.262C471.121 327.286 472.3 327.945 473.285 328.248C474.371 328.581 476.783 328.279 477.085 328.24C477.233 328.961 477.364 329.659 477.481 330.326C477.543 330.675 477.597 331.009 477.651 331.342H478.605C478.536 330.962 478.458 330.567 478.38 330.163C478.241 329.434 478.07 328.651 477.892 327.852C478.07 327.782 479.102 327.364 480.009 326.86C480.8 327.72 482.832 328.721 483.096 328.853C482.817 329.535 482.545 330.194 482.274 330.807C482.196 330.993 482.111 331.164 482.033 331.342H483.042C483.065 331.28 483.088 331.226 483.119 331.164C483.406 330.474 483.693 329.729 483.98 328.969C484.275 329.031 486.656 329.512 487.765 329.264C488.773 329.039 489.991 328.465 490.44 327.472C490.882 326.495 490.487 325.293 489.432 324.936C487.966 324.44 485.725 326.107 484.903 327.224C484.856 327.286 484.407 328.062 484.135 328.55C484.251 328.24 484.368 327.938 484.484 327.612C484.717 326.976 484.934 326.332 485.167 325.634C485.267 325.293 485.368 324.952 485.477 324.61C485.585 324.269 485.655 323.897 485.756 323.54C485.958 322.703 486.121 321.842 486.26 320.973C486.819 321.175 488.819 321.873 489.851 321.803C490.882 321.733 492.178 321.353 492.767 320.438C493.349 319.538 493.139 318.29 492.154 317.778C490.774 317.064 488.308 318.375 487.33 319.352C487.268 319.414 486.648 320.19 486.307 320.624C486.392 320.104 486.47 319.577 486.539 319.05C486.733 317.514 486.873 315.955 487.028 314.396C487.074 313.923 487.129 313.442 487.175 312.969C487.377 313.047 489.735 313.923 490.89 313.838C491.922 313.768 493.217 313.388 493.806 312.473C494.388 311.573 494.179 310.325 493.194 309.813C491.813 309.099 489.347 310.41 488.37 311.387C488.292 311.457 487.4 312.581 487.183 312.876C487.292 311.829 487.416 310.79 487.571 309.766C487.788 308.355 488.083 306.982 488.463 305.679C488.556 305.718 491.014 306.641 492.201 306.555C493.232 306.486 494.528 306.106 495.117 305.19C495.699 304.291 495.489 303.042 494.504 302.53C493.124 301.817 490.658 303.127 489.68 304.105C489.603 304.182 488.641 305.392 488.478 305.625C488.502 305.547 488.517 305.462 488.54 305.384C488.967 303.996 489.549 302.701 490.161 301.514C490.51 300.824 490.89 300.188 491.27 299.575C491.712 299.792 493.729 300.777 494.807 300.816C495.838 300.855 497.165 300.622 497.863 299.777C498.545 298.947 498.475 297.683 497.545 297.07C496.257 296.217 493.659 297.241 492.573 298.102C492.511 298.148 491.968 298.691 491.58 299.094C491.759 298.823 491.929 298.536 492.108 298.272C492.759 297.295 493.411 296.442 493.992 295.69C494.326 295.263 494.644 294.891 494.939 294.534C495.482 294.526 497.676 294.457 498.63 294.007C499.569 293.565 500.631 292.75 500.864 291.68C501.089 290.633 500.437 289.54 499.328 289.423C497.785 289.26 495.955 291.37 495.396 292.634C495.35 292.743 494.784 294.542 494.815 294.542C494.815 294.542 494.838 294.542 494.846 294.542C494.551 294.875 494.248 295.232 493.915 295.628C493.31 296.365 492.635 297.21 491.968 298.172C491.294 299.133 490.588 300.204 489.952 301.39C489.308 302.585 488.688 303.864 488.23 305.276C488.222 305.291 488.222 305.307 488.215 305.322C488.222 304.865 488.199 303.6 488.191 303.5C488.013 302.127 486.865 299.583 485.337 299.304C484.244 299.102 483.313 299.963 483.22 301.026C483.135 302.119 483.918 303.205 484.694 303.895C485.562 304.671 487.974 305.423 488.168 305.485C487.741 306.827 487.408 308.246 487.152 309.696C487.005 310.526 486.881 311.364 486.772 312.209C486.764 311.814 486.756 311.465 486.749 311.418C486.57 310.045 485.423 307.502 483.895 307.222C482.793 307.021 481.87 307.882 481.777 308.944C481.684 310.038 482.475 311.123 483.251 311.814C484.034 312.512 486.074 313.194 486.617 313.365C486.578 313.691 486.532 314.008 486.493 314.334C486.307 315.885 486.128 317.444 485.903 318.957C485.826 319.492 485.733 320.011 485.632 320.539C485.624 320.19 485.616 319.895 485.616 319.848C485.438 318.476 484.29 315.932 482.762 315.653C481.661 315.451 480.738 316.312 480.645 317.374C480.552 318.46 481.343 319.554 482.119 320.244C482.863 320.911 484.748 321.555 485.391 321.764C485.275 322.299 485.167 322.834 485.035 323.346C484.934 323.695 484.864 324.036 484.748 324.378C484.639 324.719 484.531 325.06 484.422 325.394C484.189 326.03 483.957 326.697 483.709 327.309C483.546 327.744 483.375 328.147 483.212 328.558C483.297 328.031 483.437 326.984 483.437 326.898C483.46 325.983 483.135 324.486 482.483 323.439C482.491 323.307 482.483 323.168 482.46 323.036C482.289 321.981 481.297 321.19 480.219 321.477C478.722 321.873 477.776 324.502 477.698 325.882C477.69 325.968 477.744 326.852 477.791 327.41C477.713 327.084 477.644 326.766 477.566 326.433C477.411 325.774 477.233 325.115 477.046 324.409C476.946 324.068 476.837 323.726 476.736 323.385C476.643 323.044 476.496 322.687 476.372 322.338C476.077 321.531 475.736 320.725 475.379 319.918C475.961 319.779 478.008 319.259 478.83 318.623C479.652 317.995 480.521 316.963 480.513 315.87C480.505 314.8 479.645 313.869 478.536 313.993C476.992 314.164 475.658 316.614 475.379 317.972C475.364 318.057 475.27 319.05 475.232 319.6C475.015 319.119 474.797 318.639 474.557 318.158C473.867 316.77 473.13 315.389 472.393 314.009C472.168 313.582 471.951 313.163 471.726 312.737C471.936 312.69 474.386 312.124 475.309 311.41C476.131 310.782 477 309.751 476.992 308.657C476.984 307.587 476.124 306.656 475.015 306.78C473.471 306.951 472.137 309.402 471.858 310.759C471.835 310.86 471.711 312.295 471.695 312.659C471.207 311.728 470.733 310.79 470.307 309.851C469.71 308.556 469.198 307.246 468.795 305.95C468.888 305.927 471.455 305.346 472.393 304.624C473.215 303.996 474.084 302.965 474.076 301.871C474.068 300.801 473.207 299.87 472.098 299.994C470.555 300.165 469.221 302.616 468.942 303.973C468.919 304.081 468.779 305.617 468.779 305.896C468.756 305.819 468.725 305.741 468.701 305.663C468.29 304.267 468.066 302.864 467.918 301.537C467.833 300.77 467.794 300.025 467.771 299.304C468.259 299.242 470.485 298.947 471.408 298.389C472.292 297.854 473.27 296.923 473.378 295.837C473.487 294.775 472.734 293.759 471.618 293.751C470.066 293.751 468.469 296.039 468.042 297.357C468.019 297.427 467.864 298.179 467.755 298.73C467.748 298.404 467.74 298.071 467.74 297.761C467.74 296.589 467.817 295.519 467.887 294.565C467.934 294.022 467.988 293.541 468.042 293.084C468.492 292.774 470.284 291.51 470.834 290.61C471.369 289.726 471.811 288.454 471.408 287.438C471.013 286.445 469.873 285.887 468.888 286.399C467.515 287.112 467.15 289.881 467.375 291.246C467.399 291.362 467.918 293.169 467.941 293.154L467.965 293.138C467.903 293.573 467.841 294.046 467.786 294.557C467.693 295.504 467.592 296.582 467.569 297.761C467.538 298.932 467.538 300.211 467.662 301.561C467.779 302.91 467.98 304.322 468.368 305.749C468.376 305.764 468.376 305.78 468.383 305.795C468.143 305.415 467.422 304.368 467.36 304.291C466.452 303.244 464.095 301.755 462.668 302.36C461.644 302.794 461.341 304.027 461.853 304.965C462.365 305.935 463.629 306.408 464.653 306.555Z" fill="#263238"/>
<path d="M491.208 299.281C491.231 299.296 491.704 297.474 491.72 297.357C491.914 295.984 491.472 293.231 490.076 292.557C489.067 292.068 487.951 292.657 487.578 293.658C487.206 294.682 487.679 295.946 488.238 296.814C488.905 297.83 491.208 299.281 491.208 299.281Z" fill="#263238"/>
<path d="M525.876 312.403C525.232 312.682 523.658 312.651 523.65 312.651C523.634 312.651 523.991 311.62 524.022 311.558C524.371 310.836 525.465 309.642 526.349 309.758C526.993 309.844 527.349 310.487 527.202 311.092C527.055 311.705 526.426 312.163 525.876 312.403Z" fill="#263238"/>
<path d="M525.333 316.971C524.666 317.072 523.254 316.661 523.146 316.63C522.921 317.421 522.634 318.204 522.293 318.995C522.099 319.445 521.889 319.887 521.672 320.329C521.804 320.143 521.92 319.972 521.936 319.949C522.463 319.344 523.828 318.476 524.658 318.832C525.255 319.088 525.426 319.802 525.131 320.345C524.829 320.903 524.092 321.175 523.502 321.26C522.897 321.345 521.695 321.027 521.377 320.934C521.292 321.105 521.215 321.275 521.129 321.446C520.718 322.26 520.315 323.067 519.935 323.874C519.803 324.16 519.679 324.44 519.555 324.727C519.671 324.556 519.764 324.416 519.788 324.401C520.315 323.796 521.68 322.927 522.51 323.284C523.107 323.54 523.278 324.254 522.983 324.796C522.68 325.355 521.944 325.626 521.354 325.712C520.78 325.797 519.663 325.51 519.283 325.401C519.167 325.696 519.051 325.991 518.95 326.278C518.888 326.479 518.81 326.666 518.756 326.867C518.702 327.069 518.647 327.27 518.593 327.464C518.5 327.844 518.407 328.24 518.322 328.62C518.267 328.884 518.213 329.132 518.159 329.388C518.291 329.101 518.554 328.55 518.578 328.511C519.004 327.829 520.23 326.774 521.098 326.991C521.726 327.154 522.006 327.829 521.796 328.411C521.579 329.008 520.897 329.388 520.323 329.566C519.694 329.76 518.298 329.582 518.12 329.558C518.035 329.977 517.957 330.38 517.895 330.768C517.856 330.97 517.825 331.164 517.794 331.358H517.236C517.275 331.133 517.321 330.908 517.368 330.675C517.453 330.249 517.546 329.799 517.655 329.333C517.546 329.295 516.957 329.054 516.429 328.76C515.972 329.256 514.793 329.838 514.638 329.915C514.801 330.311 514.956 330.691 515.111 331.047C515.157 331.156 515.204 331.257 515.25 331.358H514.669C514.653 331.319 514.638 331.288 514.622 331.249C514.459 330.846 514.289 330.419 514.118 329.977C513.948 330.016 512.567 330.295 511.923 330.148C511.342 330.016 510.628 329.682 510.372 329.109C510.116 328.542 510.349 327.844 510.962 327.643C511.815 327.356 513.11 328.325 513.591 328.969C513.622 329.008 513.878 329.458 514.033 329.737C513.963 329.558 513.901 329.38 513.831 329.194C513.692 328.822 513.568 328.449 513.436 328.046C513.374 327.852 513.319 327.65 513.257 327.449C513.195 327.255 513.149 327.038 513.094 326.828C512.978 326.34 512.885 325.843 512.8 325.339C512.474 325.456 511.318 325.859 510.713 325.82C510.116 325.781 509.364 325.556 509.023 325.029C508.681 324.509 508.806 323.788 509.379 323.486C510.178 323.075 511.613 323.835 512.179 324.401C512.218 324.44 512.575 324.89 512.769 325.138C512.722 324.835 512.676 324.533 512.637 324.223C512.528 323.331 512.443 322.423 512.358 321.524C512.334 321.244 512.303 320.973 512.272 320.694C512.156 320.74 510.791 321.244 510.116 321.198C509.519 321.159 508.767 320.934 508.426 320.407C508.084 319.887 508.208 319.166 508.782 318.863C509.581 318.452 511.016 319.212 511.582 319.779C511.629 319.825 512.148 320.469 512.272 320.647C512.21 320.042 512.14 319.437 512.047 318.84C511.923 318.026 511.753 317.227 511.528 316.467C511.473 316.49 510.046 317.025 509.364 316.979C508.767 316.94 508.015 316.715 507.673 316.188C507.332 315.668 507.456 314.947 508.03 314.644C508.829 314.233 510.264 314.993 510.83 315.56C510.876 315.606 511.435 316.304 511.528 316.436C511.512 316.389 511.505 316.343 511.489 316.296C511.241 315.49 510.9 314.737 510.551 314.055C510.349 313.652 510.132 313.287 509.907 312.93C509.651 313.054 508.48 313.628 507.852 313.652C507.254 313.675 506.487 313.543 506.083 313.047C505.688 312.566 505.727 311.837 506.27 311.472C507.022 310.976 508.526 311.573 509.155 312.07C509.186 312.093 509.504 312.411 509.728 312.643C509.628 312.481 509.527 312.318 509.426 312.17C509.054 311.604 508.674 311.108 508.332 310.673C508.139 310.425 507.96 310.208 507.782 310.007C507.464 309.999 506.192 309.96 505.641 309.704C505.098 309.448 504.478 308.975 504.346 308.355C504.214 307.75 504.594 307.114 505.238 307.044C506.13 306.951 507.192 308.168 507.518 308.905C507.549 308.967 507.875 310.007 507.859 310.007H507.844C508.014 310.2 508.193 310.41 508.387 310.635C508.736 311.061 509.124 311.55 509.519 312.108C509.907 312.667 510.318 313.287 510.69 313.977C511.062 314.668 511.419 315.412 511.691 316.226C511.691 316.234 511.698 316.242 511.698 316.258C511.691 315.994 511.706 315.257 511.714 315.203C511.815 314.404 512.482 312.93 513.366 312.768C514.002 312.651 514.545 313.148 514.591 313.768C514.646 314.404 514.188 315.032 513.738 315.435C513.234 315.885 511.838 316.32 511.722 316.358C511.97 317.142 512.164 317.956 512.311 318.801C512.396 319.282 512.466 319.771 512.536 320.259C512.536 320.034 512.544 319.825 512.552 319.802C512.652 319.003 513.319 317.529 514.203 317.367C514.839 317.25 515.382 317.747 515.429 318.367C515.483 319.003 515.026 319.631 514.576 320.034C514.126 320.438 512.939 320.833 512.621 320.934C512.645 321.12 512.668 321.306 512.691 321.5C512.8 322.4 512.901 323.3 513.032 324.184C513.079 324.494 513.133 324.796 513.187 325.099C513.187 324.897 513.195 324.727 513.195 324.703C513.296 323.905 513.963 322.431 514.847 322.268C515.483 322.152 516.026 322.648 516.073 323.269C516.127 323.897 515.669 324.533 515.219 324.936C514.785 325.324 513.699 325.696 513.319 325.82C513.381 326.13 513.451 326.441 513.529 326.735C513.583 326.937 513.63 327.139 513.699 327.333C513.761 327.534 513.823 327.728 513.893 327.922C514.025 328.294 514.165 328.674 514.304 329.039C514.397 329.287 514.498 329.527 514.591 329.768C514.545 329.458 514.459 328.853 514.459 328.806C514.444 328.271 514.638 327.41 515.01 326.797C515.01 326.72 515.01 326.642 515.026 326.565C515.126 325.952 515.7 325.494 516.328 325.665C517.197 325.898 517.748 327.418 517.787 328.224C517.787 328.271 517.756 328.791 517.732 329.116C517.779 328.93 517.818 328.744 517.864 328.55C517.957 328.17 518.058 327.782 518.167 327.379C518.229 327.185 518.283 326.984 518.345 326.782C518.399 326.58 518.485 326.379 518.554 326.177C518.725 325.704 518.927 325.239 519.128 324.773C518.795 324.696 517.6 324.393 517.127 324.021C516.654 323.656 516.15 323.059 516.15 322.423C516.158 321.803 516.654 321.268 517.298 321.337C518.19 321.438 518.965 322.858 519.128 323.641C519.136 323.687 519.19 324.269 519.214 324.587C519.338 324.308 519.469 324.029 519.609 323.749C520.005 322.943 520.439 322.144 520.865 321.345C520.997 321.097 521.121 320.857 521.253 320.608C521.137 320.577 519.71 320.252 519.175 319.841C518.702 319.476 518.198 318.879 518.198 318.243C518.205 317.623 518.702 317.087 519.345 317.157C520.237 317.258 521.013 318.677 521.176 319.461C521.191 319.523 521.261 320.352 521.269 320.562C521.548 320.019 521.827 319.476 522.075 318.933C522.424 318.181 522.719 317.421 522.952 316.669C522.897 316.653 521.408 316.32 520.865 315.901C520.392 315.536 519.888 314.939 519.888 314.303C519.896 313.683 520.392 313.148 521.036 313.217C521.928 313.318 522.704 314.737 522.866 315.521C522.882 315.583 522.96 316.475 522.96 316.638C522.975 316.591 522.991 316.544 523.006 316.506C523.246 315.699 523.378 314.885 523.464 314.117C523.51 313.667 523.533 313.241 523.549 312.822C523.27 312.791 521.975 312.612 521.439 312.294C520.928 311.984 520.361 311.449 520.292 310.813C520.23 310.193 520.664 309.603 521.315 309.603C522.215 309.603 523.138 310.929 523.386 311.697C523.402 311.736 523.487 312.178 523.549 312.496C523.549 312.31 523.557 312.116 523.557 311.93C523.557 311.247 523.51 310.627 523.471 310.076C523.448 309.766 523.417 309.479 523.386 309.215C523.122 309.037 522.091 308.3 521.765 307.781C521.455 307.269 521.199 306.532 521.432 305.943C521.657 305.369 522.324 305.043 522.897 305.338C523.696 305.749 523.906 307.354 523.774 308.145C523.766 308.215 523.464 309.262 523.448 309.254L523.433 309.246C523.471 309.502 523.502 309.774 523.533 310.069C523.588 310.619 523.642 311.24 523.658 311.922C523.673 312.605 523.673 313.341 523.603 314.125C523.533 314.908 523.417 315.73 523.192 316.552C523.192 316.56 523.184 316.568 523.184 316.583C523.324 316.358 523.743 315.753 523.782 315.707C524.309 315.102 525.674 314.233 526.504 314.59C527.101 314.846 527.272 315.56 526.977 316.102C526.651 316.607 525.922 316.886 525.333 316.971Z" fill="#263238"/>
<path d="M509.922 312.744C509.907 312.752 509.635 311.697 509.628 311.627C509.519 310.836 509.767 309.231 510.582 308.843C511.163 308.564 511.815 308.897 512.032 309.487C512.249 310.084 511.978 310.813 511.652 311.317C511.256 311.907 509.922 312.744 509.922 312.744Z" fill="#263238"/>
<path d="M62.766 77.6722C60.1989 79.1691 59.2295 82.0774 58.7642 83.4734C58.1204 85.3968 55.8791 82.186 51.3808 83.7914C46.8903 85.3968 46.2466 88.9256 45.2849 89.8873C44.3232 90.849 37.9016 93.4161 37.9016 93.4161H102.312" stroke="#263238" strokeWidth="0.775559" stroke-miterlimit="10" stroke-linecap="round" stroke-linejoin="round"/>
<path d="M105.53 93.4161H113.332C113.332 93.4161 114.62 86.3585 111.727 82.822C108.842 79.2932 102.42 84.4274 100.497 79.2932C100.497 79.2932 94.719 70.9482 87.6614 70.3045C80.6038 69.6607 77.711 75.1207 75.4619 78.0058C73.2128 80.8908 71.9331 76.7183 66.4731 76.7183" stroke="#263238" strokeWidth="0.775559" stroke-miterlimit="10" stroke-linecap="round" stroke-linejoin="round"/>
<path d="M74.7018 87.6848C73.3911 88.9024 73.2128 90.5311 73.2128 90.5311" stroke="#263238" strokeWidth="0.775559" stroke-miterlimit="10" stroke-linecap="round" stroke-linejoin="round"/>
<path d="M99.2096 82.1861C99.2096 82.1861 94.7191 77.6956 89.5771 78.0136C84.4429 78.3315 86.3663 84.4352 84.1172 86.3586C81.8681 88.282 79.301 85.7149 76.4159 86.6766" stroke="#263238" strokeWidth="0.775559" stroke-miterlimit="10" stroke-linecap="round" stroke-linejoin="round"/>
<path d="M237.189 6.49915C235.072 7.74004 234.273 10.1288 233.893 11.2843C233.366 12.8742 231.512 10.2218 227.805 11.548C224.098 12.8742 223.57 15.7826 222.772 16.5814C221.981 17.3725 216.683 19.4898 216.683 19.4898H269.809" stroke="#263238" strokeWidth="0.775559" stroke-miterlimit="10" stroke-linecap="round" stroke-linejoin="round"/>
<path d="M272.454 19.4898H278.891C278.891 19.4898 279.954 13.6654 277.565 10.757C275.176 7.84867 269.887 12.0832 268.297 7.84867C268.297 7.84867 263.535 0.969461 257.711 0.434325C251.886 -0.0930557 249.505 4.40519 247.652 6.78616C245.798 9.16712 244.743 5.72364 240.237 5.72364" stroke="#263238" strokeWidth="0.775559" stroke-miterlimit="10" stroke-linecap="round" stroke-linejoin="round"/>
<path d="M247.031 14.7589C245.953 15.7671 245.806 17.1011 245.806 17.1011" stroke="#263238" strokeWidth="0.775559" stroke-miterlimit="10" stroke-linecap="round" stroke-linejoin="round"/>
<path d="M267.242 10.2219C267.242 10.2219 263.535 6.51475 259.301 6.77844C255.066 7.04213 256.656 12.0755 254.802 13.6577C252.949 15.2476 250.831 13.1303 248.45 13.9213" stroke="#263238" strokeWidth="0.775559" stroke-miterlimit="10" stroke-linecap="round" stroke-linejoin="round"/>
<path d="M473.789 78.6649C471.672 79.9058 470.873 82.2945 470.493 83.4501C469.966 85.04 468.112 82.3876 464.405 83.7138C460.698 85.04 460.17 87.9484 459.372 88.7472C458.58 89.5383 453.283 91.6555 453.283 91.6555H506.409" stroke="#263238" strokeWidth="0.775559" stroke-miterlimit="10" stroke-linecap="round" stroke-linejoin="round"/>
<path d="M509.062 91.6478H515.499C515.499 91.6478 516.561 85.8233 514.173 82.915C511.792 80.0066 506.495 84.2412 504.905 80.0066C504.905 80.0066 500.143 73.1274 494.318 72.5923C488.494 72.0649 486.113 76.5631 484.259 78.9441C482.406 81.3251 481.351 77.8816 476.845 77.8816" stroke="#263238" strokeWidth="0.775559" stroke-miterlimit="10" stroke-linecap="round" stroke-linejoin="round"/>
<path d="M483.631 86.9247C482.553 87.9329 482.406 89.2669 482.406 89.2669" stroke="#263238" strokeWidth="0.775559" stroke-miterlimit="10" stroke-linecap="round" stroke-linejoin="round"/>
<path d="M503.85 82.3877C503.85 82.3877 500.143 78.6805 495.908 78.9442C491.674 79.2079 493.264 84.2413 491.41 85.8234C489.556 87.4133 487.439 85.296 485.058 86.0871" stroke="#263238" strokeWidth="0.775559" stroke-miterlimit="10" stroke-linecap="round" stroke-linejoin="round"/>
<path d="M454.524 188.88L437.206 149.567L390.37 170.204L379.28 145.03L373.634 23.3211L407.906 8.22095L453.997 112.852L468.849 106.306L479.66 130.852L464.808 137.398L482.127 176.711L454.524 188.88ZM402.779 135.42L426.387 125.02L394.861 53.4671L402.779 135.42Z" fill="#263238" stroke="#263238" strokeWidth="0.775559" stroke-miterlimit="10"/>
<path d="M450.763 190.586L433.445 151.273L386.609 171.91L375.518 146.743L369.872 25.035L404.144 9.93481L450.236 114.566L465.088 108.02L475.899 132.566L461.047 139.112L478.365 178.425L450.763 190.586ZM399.018 137.127L422.626 126.726L391.099 55.1732L399.018 137.127Z" fill="#26A646" stroke="#263238" strokeWidth="0.775559" stroke-miterlimit="10"/>
<path d="M307.416 223.121C297.458 224.959 288.795 224.237 281.42 220.972C274.044 217.707 268.002 212.465 263.287 205.244C258.572 198.024 255.268 189.268 253.375 178.991L238.43 97.8446C236.484 87.2659 236.336 77.6955 238.011 69.1489C239.679 60.6022 243.378 53.4826 249.102 47.8055C254.826 42.1284 262.806 38.3514 273.036 36.4668C283.126 34.6055 291.828 35.319 299.133 38.5918C306.431 41.8725 312.388 47.2083 316.994 54.5994C321.601 61.9982 324.882 70.9869 326.829 81.5656L341.774 162.712C343.666 172.996 343.697 182.35 341.867 190.78C340.036 199.21 336.259 206.26 330.528 211.937C324.812 217.606 317.103 221.337 307.416 223.121ZM301.817 192.719C305.501 192.044 307.928 190.283 309.099 187.445C310.27 184.614 310.805 181.396 310.705 177.789C310.604 174.191 310.278 170.895 309.735 167.916L295.038 88.1113C294.433 84.8384 293.565 81.4492 292.425 77.9592C291.285 74.4692 289.664 71.5764 287.546 69.2652C285.429 66.9618 282.459 66.1552 278.643 66.861C274.82 67.5667 272.299 69.3815 271.074 72.2976C269.848 75.2215 269.329 78.5099 269.507 82.1783C269.685 85.8467 270.081 89.3134 270.686 92.594L285.383 172.399C285.933 175.385 286.802 178.573 287.988 181.97C289.175 185.374 290.897 188.174 293.138 190.384C295.38 192.595 298.272 193.37 301.817 192.719Z" fill="#263238" stroke="#263238" strokeWidth="0.775559" stroke-miterlimit="10"/>
<path d="M302.972 224.144C293.014 225.982 284.351 225.261 276.976 221.996C269.608 218.731 263.558 213.488 258.843 206.268C254.128 199.047 250.824 190.291 248.931 180.015L233.986 98.8683C232.04 88.2896 231.892 78.7192 233.567 70.1726C235.235 61.6259 238.934 54.5063 244.658 48.8292C250.382 43.1521 258.362 39.3751 268.592 37.4905C278.682 35.6291 287.384 36.3427 294.689 39.6155C301.987 42.8961 307.944 48.232 312.55 55.6231C317.157 63.0219 320.438 72.0106 322.385 82.5893L337.33 163.736C339.222 174.02 339.253 183.373 337.423 191.804C335.592 200.234 331.815 207.284 326.084 212.961C320.368 218.63 312.659 222.361 302.972 224.144ZM297.373 193.742C301.057 193.068 303.484 191.307 304.655 188.469C305.826 185.638 306.362 182.419 306.261 178.813C306.16 175.214 305.834 171.918 305.291 168.94L290.594 89.135C289.989 85.8621 289.121 82.4729 287.981 78.9829C286.841 75.4929 285.22 72.6001 283.102 70.2889C280.985 67.9855 278.015 67.1789 274.199 67.8847C270.376 68.5904 267.855 70.4052 266.63 73.3213C265.404 76.2452 264.885 79.5336 265.063 83.202C265.241 86.8703 265.637 90.3371 266.242 93.6177L280.939 173.423C281.489 176.409 282.358 179.596 283.545 182.993C284.731 186.398 286.453 189.198 288.694 191.408C290.936 193.626 293.828 194.402 297.373 193.742Z" fill="#26A646" stroke="#263238" strokeWidth="0.775559" stroke-miterlimit="10"/>
<path d="M129.425 203.189L139.29 161.378L89.4763 149.621L95.7971 122.856L164.628 22.3284L201.079 30.9293L174.819 142.207L190.617 145.937L184.459 172.042L168.661 168.312L158.796 210.122L129.425 203.189ZM120.344 129.348L145.456 135.273L163.418 59.1752L120.344 129.348Z" fill="#263238" stroke="#263238" strokeWidth="0.775559" stroke-miterlimit="10"/>
<path d="M125.408 202.305L135.273 160.494L85.4589 148.737L91.7797 121.972L160.618 21.4442L197.07 30.0452L170.809 141.322L186.607 145.053L180.449 171.158L164.651 167.428L154.786 209.238L125.408 202.305ZM116.334 128.464L141.446 134.389L159.408 58.291L116.334 128.464Z" fill="#26A646" stroke="#263238" strokeWidth="0.775559" stroke-miterlimit="10"/>
<path d="M404.687 210.487C404.687 210.487 401.926 228.937 402.965 235.142C403.997 241.346 417.794 268.941 417.794 268.941V272.733L407.277 277.906L410.379 284.979L414.692 283.948L410.55 303.608L419.515 305.508L431.071 280.334C431.071 280.334 451.073 274.129 451.422 272.57C451.763 271.019 448.149 247.047 448.149 247.047C448.149 247.047 443.666 225.323 440.735 218.08C437.803 210.836 434.181 204.282 434.181 204.282L404.687 210.487Z" fill="#263238" stroke="#263238" strokeWidth="0.775559" stroke-miterlimit="10"/>
<path d="M415.033 236.864L421.935 238.934L432.622 266.529L419.515 272.563" stroke="white" strokeWidth="0.775559" stroke-miterlimit="10"/>
<path d="M429.171 281.179L417.274 283.599" stroke="white" strokeWidth="0.775559" stroke-miterlimit="10"/>
<path d="M394.791 165.179L385.158 172.694L382.878 168.033L376.449 171.647C376.449 171.647 376.208 192.005 377.93 192.827C379.652 193.642 400.786 181.233 400.786 181.233C400.786 181.233 402.197 203.639 401.841 206.989C401.492 210.34 403.779 211.929 405.369 211.751C406.959 211.573 436.95 207.695 437.656 206.811C438.362 205.927 439.067 203.639 438.711 202.227C438.354 200.816 431.831 176.292 431.831 176.292C431.831 176.292 449.646 179.115 450.352 177.526C451.058 175.936 456.347 160.766 456.347 160.766L447.35 158.648L444 163.767C444 163.767 424.774 155.825 418.6 155.825C412.427 155.825 396.73 163.767 394.791 165.179Z" fill="white" stroke="#263238" strokeWidth="0.775559" stroke-miterlimit="10"/>
<path d="M444.008 163.767L448.552 165.605" stroke="#263238" strokeWidth="0.775559" stroke-miterlimit="10"/>
<path d="M420.85 174.772L431.839 176.292L419.81 178.092" stroke="#263238" strokeWidth="0.775559" stroke-miterlimit="10"/>
<path d="M379.598 179.015L378.14 180.674" stroke="#263238" strokeWidth="0.775559" stroke-miterlimit="10"/>
<path d="M385.158 172.694L381.079 177.332" stroke="#263238" strokeWidth="0.775559" stroke-miterlimit="10"/>
<path d="M427.054 185.211C423.223 190.633 415.32 201.32 410.24 204.732" stroke="#263238" strokeWidth="0.775559" stroke-miterlimit="10"/>
<path d="M429.288 181.977C429.288 181.977 428.884 182.574 428.186 183.59" stroke="#263238" strokeWidth="0.775559" stroke-miterlimit="10"/>
<path d="M410.317 202.142C409.17 203.336 408.053 204.391 407.107 205.104" stroke="#263238" strokeWidth="0.775559" stroke-miterlimit="10"/>
<path d="M417.437 193.828C417.437 193.828 414.459 197.667 411.357 201.041" stroke="#263238" strokeWidth="0.775559" stroke-miterlimit="10"/>
<path d="M376.449 171.647L375.596 152.335C375.596 152.335 372.137 145.712 372.059 145.185C371.981 144.657 373.362 138.22 373.734 137.096C374.107 135.971 376.053 137.111 377.061 139.104C378.062 141.098 377.573 143.843 377.573 143.843C377.573 143.843 379.853 147.256 380.257 148.799C380.66 150.342 379.915 152.591 379.915 152.591L382.878 168.025L376.449 171.647Z" fill="white" stroke="#263238" strokeWidth="0.775559" stroke-miterlimit="10"/>
<path d="M375.371 136.987C375.371 136.987 374.246 137.235 374.479 138.282C374.712 139.329 375.821 143.486 375.658 144.665" stroke="#263238" strokeWidth="0.775559" stroke-miterlimit="10"/>
<path d="M447.366 157.819C447.366 157.819 460.752 135.064 461.985 134.412C463.218 133.753 472.579 134.001 472.579 134.001C472.579 134.001 476.194 128.991 476.69 129.565C477.186 130.139 477.186 130.139 477.186 130.139C477.186 130.139 478.497 129.402 478.908 129.813C479.319 130.224 479.319 130.224 479.319 130.224C479.319 130.224 480.219 129.487 480.715 129.728C481.211 129.976 481.211 130.713 481.211 130.713C481.211 130.713 482.196 130.139 481.948 131.209C481.7 132.279 478.66 137.53 477.427 138.274C476.194 139.011 463.629 139.011 463.629 139.011L456.805 159.215L447.366 157.819Z" fill="white" stroke="#263238" strokeWidth="0.775559" stroke-miterlimit="10"/>
<path d="M477.179 130.139C477.179 130.139 474.061 135.971 473.402 136.545" stroke="#263238" strokeWidth="0.775559" stroke-miterlimit="10"/>
<path d="M479.311 130.216L475.457 137.282" stroke="#263238" strokeWidth="0.775559" stroke-miterlimit="10"/>
<path d="M481.204 130.713L477.504 136.956" stroke="#263238" strokeWidth="0.775559" stroke-miterlimit="10"/>
<path d="M374.176 170.724L376.061 176.331L385.771 169.568L383.436 164.566L374.176 170.724Z" fill="white" stroke="#263238" strokeWidth="0.775559" stroke-miterlimit="10"/>
<path d="M432.366 135.358C432.366 135.358 432.366 138.887 431.482 141.71C430.598 144.533 433.072 147 432.366 147.884C431.661 148.768 429.365 150.001 429.365 150.001C429.365 150.001 428.31 154.763 426.542 155.469C424.781 156.174 419.841 154.057 419.841 154.057C419.841 154.057 415.428 148.411 418.43 143.471C421.431 138.538 432.366 135.358 432.366 135.358Z" fill="white" stroke="#263238" strokeWidth="0.775559" stroke-miterlimit="10"/>
<path d="M429.187 144.107C428.977 144.758 428.59 145.223 428.326 145.138C428.054 145.053 428.008 144.456 428.217 143.796C428.427 143.145 428.814 142.68 429.078 142.765C429.35 142.85 429.396 143.455 429.187 144.107Z" fill="#263238"/>
<path d="M427.713 140.78C427.713 140.78 428.744 139.314 430.272 140.198" stroke="#263238" strokeWidth="0.775559" stroke-miterlimit="10"/>
<path d="M425.138 148.031C425.138 148.031 425.704 150.071 428.194 150.296" stroke="#263238" strokeWidth="0.775559" stroke-miterlimit="10"/>
<path d="M436.074 127.068C436.074 127.068 438.013 131.651 435.725 134.653C433.429 137.654 427.612 137.825 424.084 142.416C420.555 147 421.966 153.002 422.85 154.941C423.735 156.88 422.323 164.295 419.849 165.349C417.383 166.404 413.319 167.11 414.381 169.584C415.444 172.058 416.677 176.285 415.614 178.402C414.552 180.519 407.851 184.226 402.562 182.28C397.272 180.341 397.443 176.455 398.855 173.811C400.266 171.166 397.443 172.399 394.442 168.165C391.44 163.93 387.741 156.523 392.503 152.816C397.265 149.109 400.972 147.876 401.321 144.347C401.678 140.818 399.863 132.442 404.446 128.914C409.03 125.385 411.628 126.222 411.628 126.222C411.628 126.222 415.963 121.422 420.725 121.422C425.487 121.422 427.426 124.423 427.426 124.423C427.426 124.423 433.429 119.661 436.074 127.068Z" fill="#263238" stroke="#263238" strokeWidth="0.775559" stroke-miterlimit="10"/>
<path d="M446.66 155.825L445.07 159.882L456.533 163.938L458.123 157.594L446.66 155.825Z" fill="white" stroke="#263238" strokeWidth="0.775559" stroke-miterlimit="10"/>
<path d="M407.277 277.906C407.277 277.906 384.608 285.856 384.879 287.5C385.15 289.136 390.486 303.492 392.666 305.811C394.853 308.138 395.807 309.503 396.218 307.587C396.629 305.671 396.078 303.352 396.078 302.391C396.078 301.437 397.172 290.501 397.583 289.951C397.994 289.408 410.372 284.972 410.372 284.972L407.277 277.906Z" fill="white" stroke="#263238" strokeWidth="0.775559" stroke-miterlimit="10"/>
<path d="M393.899 291.052L391.355 283.948C387.648 285.507 384.778 286.911 384.879 287.5C385.15 289.136 390.486 303.492 392.666 305.811C394.853 308.138 395.807 309.503 396.218 307.587C396.629 305.671 396.078 303.352 396.078 302.391C396.078 301.437 397.172 290.501 397.583 289.951L393.899 291.052Z" fill="white" stroke="#263238" strokeWidth="0.775559" stroke-miterlimit="10"/>
<path d="M410.55 303.601C410.55 303.601 404.074 325.913 404.284 327.131C404.493 328.349 410.666 330.272 413.032 330.939C415.405 331.614 421.416 331.373 423.013 330.722C424.619 330.07 425.627 328.775 424.371 328.31C423.106 327.845 419.632 326.968 419.632 326.968L414.56 320.306L419.516 305.501L410.55 303.601Z" fill="white" stroke="#263238" strokeWidth="0.775559" stroke-miterlimit="10"/>
<path d="M424.371 328.31C423.106 327.844 419.632 326.968 419.632 326.968L414.56 320.306L413.381 323.393L405.656 320.926C404.819 324.448 404.206 326.728 404.284 327.131C404.501 328.349 410.666 330.272 413.032 330.939C415.405 331.614 421.416 331.373 423.013 330.722C424.619 330.078 425.635 328.783 424.371 328.31Z" fill="white" stroke="#263238" strokeWidth="0.775559" stroke-miterlimit="10"/>
<path d="M253.352 121.825C253.352 121.825 260.216 127.967 261.216 127.967C262.217 127.967 263.217 124.966 264.791 127.106C266.366 129.247 264.791 131.682 264.791 131.682C264.791 131.682 271.081 138.546 270.081 139.833C269.08 141.121 264.365 143.835 264.365 143.835L263.364 155.841L250.498 152.266L250.358 147.837L243.642 143.409C243.642 143.409 240.067 137.406 242.502 131.543C244.922 125.679 253.352 121.825 253.352 121.825Z" fill="white" stroke="#263238" strokeWidth="0.775559" stroke-miterlimit="10"/>
<path d="M253.352 121.825C253.352 121.825 246.636 127.688 247.349 128.402C248.063 129.115 251.638 130.116 251.064 131.116C250.49 132.117 248.924 135.258 248.924 135.258C248.924 135.258 251.785 136.832 251.638 137.685C251.498 138.546 250.777 139.399 250.351 139.259C249.924 139.12 245.775 137.685 245.348 139.973C244.922 142.261 246.775 144.401 248.35 145.115C249.924 145.828 252.491 144.254 252.491 144.254C252.491 144.254 250.777 147.682 250.351 147.829C249.924 147.969 242.199 144.541 239.198 143.254C236.197 141.966 233.482 140.113 234.196 136.964C234.909 133.823 235.77 129.821 238.484 127.533C241.199 125.245 243.487 122.67 243.487 122.67C243.487 122.67 239.625 120.53 242.486 119.382C245.348 118.242 248.35 119.382 248.35 119.382C248.35 119.382 247.349 116.241 249.924 116.807C252.491 117.389 253.779 119.11 253.352 121.825Z" fill="#263238" stroke="#263238" strokeWidth="0.775559" stroke-miterlimit="10"/>
<path d="M264.357 143.835L259.781 146.41L263.783 149.264L264.357 143.835Z" fill="#263238" stroke="#263238" strokeWidth="0.775559" stroke-miterlimit="10"/>
<path d="M255.64 126.401C255.64 126.401 252.778 126.401 253.065 129.115" stroke="#263238" strokeWidth="0.775559" stroke-miterlimit="10"/>
<path d="M258.858 129.883C259.378 130.527 259.479 131.31 259.083 131.636C258.688 131.961 257.936 131.698 257.416 131.054C256.896 130.41 256.795 129.627 257.191 129.301C257.594 128.983 258.339 129.239 258.858 129.883Z" fill="#263238"/>
<path d="M242.843 313.799C242.843 313.799 243.549 320.857 244.255 321.911C244.96 322.966 251.661 326.324 253.073 327.736C254.484 329.147 251.312 330.202 249.722 330.908C248.132 331.614 246.372 331.435 243.192 330.559C240.012 329.682 237.019 327.03 235.08 326.146C233.141 325.262 228.201 323.68 228.55 322.439C228.906 321.206 235.08 311.147 235.08 311.147L242.843 313.799Z" fill="white" stroke="#263238" strokeWidth="0.775559" stroke-miterlimit="10"/>
<path d="M312.349 317.328C312.349 317.328 320.112 327.387 320.639 327.557C321.911 327.976 327.115 322.276 328.131 321.446C331.079 319.019 333.754 316.296 335.871 313.101C336.74 311.783 339.377 307.292 337.229 305.865C334.569 304.089 331.334 308.262 329.116 309.215C327.883 309.743 324.354 311.333 324.354 311.333L312.349 317.328Z" fill="white" stroke="#263238" strokeWidth="0.775559" stroke-miterlimit="10"/>
<path d="M249.544 222.942C249.544 222.942 250.071 231.939 250.777 233.001C251.483 234.056 253.949 242.354 253.949 242.354L248.303 274.641L234.017 310.456L244.247 315.04L264.714 277.286C264.714 277.286 271.771 259.114 271.95 258.587C272.128 258.06 312.349 317.336 312.349 317.336L320.818 311.868L294.007 253.476L280.776 222.074L249.544 222.942Z" fill="#263238" stroke="#263238" strokeWidth="0.775559" stroke-miterlimit="10"/>
<path d="M234.196 304.097L232.784 312.031L244.076 316.971L248.311 310.619L234.196 304.097Z" fill="white" stroke="#263238" strokeWidth="0.775559" stroke-miterlimit="10"/>
<path d="M308.463 315.381L313.054 319.972L324.347 311.325L320.112 306.036L308.463 315.381Z" fill="white" stroke="#263238" strokeWidth="0.775559" stroke-miterlimit="10"/>
<path d="M248.637 154.84C248.637 154.84 243.921 172.275 244.495 176.851C245.069 181.427 243.495 224.594 243.495 224.594C243.495 224.594 253.786 227.735 265.792 226.456C277.798 225.176 284.801 222.88 284.801 222.88C284.801 222.88 272.795 175.284 270.794 169.568C268.793 163.852 263.791 157.276 263.791 157.276L248.637 154.84Z" fill="white" stroke="#263238" strokeWidth="0.775559" stroke-miterlimit="10"/>
<path d="M249.063 150.265L247.202 155.841L266.498 160.843L267.072 154.414L249.063 150.265Z" fill="white" stroke="#263238" strokeWidth="0.775559" stroke-miterlimit="10"/>
<path d="M293.518 219.305L297.52 220.305C297.52 220.305 299.234 217.878 300.521 217.444C301.809 217.017 303.383 217.304 304.95 217.304C306.524 217.304 307.951 215.163 309.239 216.164C310.526 217.164 308.525 218.304 307.812 218.591C307.098 218.878 303.67 219.592 303.67 219.592C303.67 219.592 311.821 222.019 312.388 222.019C312.961 222.019 311.961 223.446 311.247 223.881C310.534 224.307 308.106 224.455 308.106 224.455C308.106 224.455 304.105 225.882 302.104 226.029C300.103 226.169 294.813 224.455 294.813 224.455L291.525 223.167L289.524 222.454L293.518 219.305Z" fill="white" stroke="#263238" strokeWidth="0.775559" stroke-miterlimit="10"/>
<path d="M253.205 162.705C253.205 162.705 247.202 168.134 248.776 173.136C250.351 178.138 288.229 226.021 288.229 226.021L296.093 218.591L263.077 163.565" fill="white"/>
<path d="M253.205 162.705C253.205 162.705 247.202 168.134 248.776 173.136C250.351 178.138 288.229 226.021 288.229 226.021L296.093 218.591L263.077 163.565" stroke="#263238" strokeWidth="0.775559" stroke-miterlimit="10"/>
<path d="M259.952 242.882L271.066 257.168" stroke="white" strokeWidth="0.775559" stroke-miterlimit="10"/>
<path d="M94.9828 125.423C94.9828 125.423 90.3838 129.914 90.0425 132.714C89.709 135.521 85.7769 147.193 87.1264 149.435C88.4759 151.676 95.6576 156.167 95.6576 156.167C95.6576 156.167 86.9015 158.408 87.5762 163.015C88.251 167.614 91.392 168.064 91.392 168.064C91.392 168.064 84.3189 172.213 86.6766 175.245C89.0343 178.278 94.6416 177.828 95.5412 175.354C96.4409 172.888 94.7579 169.747 94.7579 169.747C94.7579 169.747 99.2484 168.397 100.365 166.489C101.49 164.581 101.149 162.79 101.149 162.79C101.149 162.79 105.073 163.465 107.431 161.782C109.788 160.099 110.796 154.825 110.796 154.825C110.796 154.825 119.103 150.109 122.019 142.478C124.935 134.846 123.927 131.705 122.019 129.348C120.111 126.99 106.197 120.033 101.932 120.933C97.674 121.833 94.9828 125.423 94.9828 125.423Z" fill="#263238" stroke="#263238" strokeWidth="0.775559" stroke-miterlimit="10"/>
<path d="M104.522 153.817L106.763 164.256L118.319 157.524L115.178 153.033C115.178 153.033 107.213 155.725 104.522 153.817Z" fill="white" stroke="#263238" strokeWidth="0.775559" stroke-miterlimit="10"/>
<path d="M103.847 131.938L96.7743 144.394C96.7743 144.394 99.3569 150.117 100.924 151.909C102.498 153.708 104.406 155.949 109.68 156.508C114.953 157.066 118.094 151.909 118.319 148.543C118.544 145.177 114.953 135.188 114.953 135.188L103.847 131.938Z" fill="white" stroke="#263238" strokeWidth="0.775559" stroke-miterlimit="10"/>
<path d="M97.674 145.51C97.674 145.51 94.308 144.161 95.0914 146.969C95.8747 149.776 99.4655 149.776 99.4655 149.776L97.674 145.51Z" fill="white" stroke="#263238" strokeWidth="0.775559" stroke-miterlimit="10"/>
<path d="M115.853 138.104C115.853 138.104 116.303 136.196 117.986 137.321C119.669 138.445 117.428 142.594 117.428 142.594L115.853 138.104Z" fill="white" stroke="#263238" strokeWidth="0.775559" stroke-miterlimit="10"/>
<path d="M107.097 144.169L108.555 147.535L110.804 146.635" stroke="#263238" strokeWidth="0.775559" stroke-miterlimit="10"/>
<path d="M106.872 149.892C106.872 149.892 111.471 151.909 113.27 146.976" stroke="#263238" strokeWidth="0.775559" stroke-miterlimit="10"/>
<path d="M110.129 141.811C110.129 141.811 111.587 139.903 113.495 140.462" stroke="#263238" strokeWidth="0.775559" stroke-miterlimit="10"/>
<path d="M107.772 137.545C107.772 137.545 109.571 135.304 112.262 136.087" stroke="#263238" strokeWidth="0.775559" stroke-miterlimit="10"/>
<path d="M103.731 139.004C103.731 139.004 100.59 137.654 99.2406 141.245" stroke="#263238" strokeWidth="0.775559" stroke-miterlimit="10"/>
<path d="M104.437 143.936C104.724 144.518 104.639 145.146 104.251 145.34C103.863 145.534 103.312 145.216 103.025 144.626C102.738 144.045 102.824 143.416 103.211 143.222C103.607 143.029 104.15 143.347 104.437 143.936Z" fill="#263238"/>
<path d="M159.664 135.203C159.664 135.203 166.078 130.852 166.536 130.395C166.993 129.937 169.739 128.107 171.003 127.075C172.26 126.044 172.609 122.608 173.981 123.182C175.354 123.756 175.695 125.129 175.238 126.16C174.78 127.192 172.492 129.022 172.492 129.022C172.492 129.022 178.79 127.766 179.131 128.448C179.472 129.138 179.472 130.627 179.015 131.194C178.557 131.768 177.983 132.45 177.983 132.45C177.983 132.45 177.526 136.343 176.835 137.6C176.145 138.856 173.516 139.663 171.686 139.663C169.855 139.663 166.078 140.12 166.078 140.12L161.844 141.834L159.664 135.203Z" fill="white" stroke="#263238" strokeWidth="0.775559" stroke-miterlimit="10"/>
<path d="M103.646 204.445L103.343 209.68L136.118 206.687L134.622 201.901L103.646 204.445Z" fill="white" stroke="#263238" strokeWidth="0.775559" stroke-miterlimit="10"/>
<path d="M106.252 162.317C106.252 162.317 100.544 165.66 99.0313 168.25C97.5189 170.84 85.6529 189.826 86.5137 191.982C87.3746 194.138 91.2601 196.728 92.9896 196.728C94.7191 196.728 110.036 199.102 110.036 199.102L107.624 164.682L106.252 162.317Z" fill="white" stroke="#263238" strokeWidth="0.775559" stroke-miterlimit="10"/>
<path d="M102.482 188.531C102.482 188.531 97.5189 192.416 93.2068 193.494" stroke="#263238" strokeWidth="0.775559" stroke-miterlimit="10"/>
<path d="M101.528 189.469C101.528 189.469 99.8455 193.029 97.674 194.417" stroke="#263238" strokeWidth="0.775559" stroke-miterlimit="10"/>
<path d="M159.664 135.203C159.664 135.203 109.051 160.169 105.391 161.883C101.73 163.597 97.9454 171.616 98.8605 177.913C99.7757 184.211 104.127 191.082 104.468 192.114C104.809 193.145 103.32 201.731 102.979 203.336C102.637 204.942 102.746 206.198 104.235 206.888C105.724 207.579 134.009 203.685 135.04 203.111C136.072 202.537 136.987 201.165 136.297 198.76C135.607 196.356 132.745 190.059 132.745 189.485C132.745 188.911 127.82 173.221 127.82 173.221C127.82 173.221 150.947 153.638 153.584 150.435C156.221 147.232 161.828 141.85 161.828 141.85L159.664 135.203Z" fill="white" stroke="#263238" strokeWidth="0.775559" stroke-miterlimit="10"/>
<path d="M111.797 191.416C110.82 192.331 109.959 193.052 109.284 193.487" stroke="#263238" strokeWidth="0.775559" stroke-miterlimit="10"/>
<path d="M113.837 183.148C120.142 179.061 127.835 173.221 127.835 173.221C127.835 173.221 119.591 183.528 113.635 189.609" stroke="#263238" strokeWidth="0.775559" stroke-miterlimit="10"/>
<path d="M106.764 186.956C107.865 186.693 109.757 185.684 111.975 184.319" stroke="#263238" strokeWidth="0.775559" stroke-miterlimit="10"/>
<path d="M118.327 188.794C118.327 188.794 114.666 192.688 113.177 193.719" stroke="#263238" strokeWidth="0.775559" stroke-miterlimit="10"/>
<path d="M130.519 167.567C129.914 168.366 129.317 169.041 128.743 169.553" stroke="#263238" strokeWidth="0.775559" stroke-miterlimit="10"/>
<path d="M139.283 151.35C139.283 151.35 135.746 159.618 132.093 165.318" stroke="#263238" strokeWidth="0.775559" stroke-miterlimit="10"/>
<path d="M156.803 136.692L159.664 144.138" stroke="#263238" strokeWidth="0.775559" stroke-miterlimit="10"/>
<path d="M118.157 284.948L112.022 308.742L108.129 314.73L105.585 323.261L110.82 325.805C110.82 325.805 113.666 322.958 115.31 324.61C116.955 326.255 117.11 329.101 117.11 329.101C117.11 329.101 125.044 331.497 126.688 331.342C128.332 331.195 130.876 331.645 131.178 330.892C131.481 330.148 131.628 324.455 130.876 323.711C130.356 323.191 124.92 321.446 121.445 318.476C119.933 317.173 118.785 313.225 118.599 313.086C118.002 312.636 130.868 286.6 130.868 286.6L118.157 284.948Z" fill="white" stroke="#263238" strokeWidth="0.775559" stroke-miterlimit="10"/>
<path d="M131.178 330.885C131.481 330.14 131.628 324.447 130.876 323.703C130.356 323.183 124.919 321.438 121.445 318.468C119.933 317.165 118.785 313.217 118.599 313.078C118.536 313.031 118.622 312.713 118.808 312.194L111.572 309.417L108.121 314.722L105.577 323.253L110.812 325.797C110.812 325.797 113.658 322.951 115.302 324.603C116.947 326.247 117.102 329.093 117.102 329.093C117.102 329.093 125.036 331.49 126.68 331.334C128.332 331.187 130.876 331.637 131.178 330.885Z" fill="#263238" stroke="#263238" strokeWidth="0.775559" stroke-miterlimit="10"/>
<path d="M140.904 277.619L155.554 314.179C155.554 314.179 154.608 319.701 155.554 321.182C156.5 322.664 158.648 328.054 158.648 328.054L166.458 326.169C166.458 326.169 165.784 323.478 167.94 323.61C170.096 323.742 171.709 324.688 171.709 324.688C171.709 324.688 178.037 321.322 179.922 320.244C181.807 319.166 182.753 317.685 182.613 317.149C182.481 316.614 180.597 312.434 178.441 312.837C176.285 313.241 172.244 314.993 170.228 314.993C168.211 314.993 163.759 313.512 162.821 311.899C161.875 310.286 155.562 283.164 155.562 283.164L153.762 270.143L147.325 248.148L140.904 277.619Z" fill="white" stroke="#263238" strokeWidth="0.775559" stroke-miterlimit="10"/>
<path d="M182.621 317.134C182.489 316.599 180.605 312.419 178.448 312.822C176.292 313.225 172.252 314.978 170.235 314.978C168.219 314.978 163.767 313.497 162.829 311.883C162.736 311.721 162.588 311.31 162.402 310.705L155.345 313.652L155.554 314.164C155.554 314.164 154.608 319.686 155.554 321.167C156.5 322.648 158.648 328.038 158.648 328.038L166.458 326.154C166.458 326.154 165.784 323.463 167.94 323.594C170.096 323.726 171.709 324.672 171.709 324.672C171.709 324.672 178.037 321.306 179.922 320.228C181.814 319.158 182.761 317.677 182.621 317.134Z" fill="#263238" stroke="#263238" strokeWidth="0.775559" stroke-miterlimit="10"/>
<path d="M103.343 209.68L93.4705 287.492C93.4705 287.492 106.337 289.136 121.15 288.686C135.963 288.237 139.857 287.639 139.857 287.639L147.488 252.173L155.569 283.149L159.308 281.955C159.308 281.955 155.12 256.819 152.723 251.429C150.327 246.038 136.111 206.687 136.111 206.687L103.343 209.68Z" fill="#263238" stroke="#263238" strokeWidth="0.775559" stroke-miterlimit="10"/>
</g>
<defs>
<clipPath id="clip0_5_18">
<rect width="561.474" height="331.73" fill="white"/>
</clipPath>
</defs>
</svg>
