<svg width="132" height="24" viewBox="0 0 132 24" fill="none" xmlns="http://www.w3.org/2000/svg">
<path d="M11.9999 0.952637L14.5818 8.89894H22.937L16.1775 13.81L18.7594 21.7563L11.9999 16.8452L5.24035 21.7563L7.82226 13.81L1.06273 8.89894H9.41797L11.9999 0.952637Z" fill="#FFE815"/>
<path d="M38.9999 0.952637L41.5818 8.89894H49.937L43.1775 13.81L45.7594 21.7563L38.9999 16.8452L32.2403 21.7563L34.8223 13.81L28.0627 8.89894H36.418L38.9999 0.952637Z" fill="#FFE815"/>
<path d="M65.9999 0.952637L68.5818 8.89894H76.937L70.1775 13.81L72.7594 21.7563L65.9999 16.8452L59.2403 21.7563L61.8223 13.81L55.0627 8.89894H63.418L65.9999 0.952637Z" fill="#FFE815"/>
<path d="M92.9999 0.952637L95.5818 8.89894H103.937L97.1775 13.81L99.7594 21.7563L92.9999 16.8452L86.2403 21.7563L88.8223 13.81L82.0627 8.89894H90.418L92.9999 0.952637Z" fill="#FFE815"/>
<path d="M120 0.952637L122.582 8.89894H130.937L124.177 13.81L126.759 21.7563L120 16.8452L113.24 21.7563L115.822 13.81L109.063 8.89894H117.418L120 0.952637Z" fill="#FFE815"/>
</svg>
