<svg width="131" height="24" viewBox="0 0 131 24" fill="none" xmlns="http://www.w3.org/2000/svg">
<path d="M11.5 0.711426L14.0819 8.65773H22.4371L15.6776 13.5688L18.2595 21.5151L11.5 16.604L4.74047 21.5151L7.32238 13.5688L0.56285 8.65773H8.91809L11.5 0.711426Z" fill="#FFE815"/>
<path d="M38.5 0.711426L41.0819 8.65773H49.4371L42.6776 13.5688L45.2595 21.5151L38.5 16.604L31.7405 21.5151L34.3224 13.5688L27.5628 8.65773H35.9181L38.5 0.711426Z" fill="#FFE815"/>
<path d="M65.5 0.711426L68.0819 8.65773H76.4371L69.6776 13.5688L72.2595 21.5151L65.5 16.604L58.7405 21.5151L61.3224 13.5688L54.5628 8.65773H62.9181L65.5 0.711426Z" fill="#FFE815"/>
<path d="M92.5 0.711426L95.0819 8.65773H103.437L96.6776 13.5688L99.2595 21.5151L92.5 16.604L85.7405 21.5151L88.3224 13.5688L81.5628 8.65773H89.9181L92.5 0.711426Z" fill="#FFE815"/>
<path d="M119.5 0.711426L122.082 8.65773H130.437L123.678 13.5688L126.26 21.5151L119.5 16.604L112.74 21.5151L115.322 13.5688L108.563 8.65773H116.918L119.5 0.711426Z" fill="#D9D9D9"/>
</svg>
